<svg xmlns="http://www.w3.org/2000/svg" viewBox="0 0 400 400" width="400" height="400">
  <defs>
    <path id="topArc" d="M 60 200 A 140 140 0 0 1 340 200" fill="none"></path>
    <path id="bottomArc" d="M 60 200 A 140 140 0 0 0 340 200" fill="none"></path>
    <clipPath id="circleClip">
      <circle cx="200" cy="200" r="200"></circle>
    </clipPath>
  </defs>

  <g clip-path="url(#circleClip)">
  <circle cx="200" cy="200" r="200" fill="#0A0A0A"></circle>

  
  <g>
    <circle cx="200" cy="200" r="170" fill="none" stroke="#19E27A" stroke-width="22"></circle>
    
    <g fill="#0A0A0A">
      <rect x="195" y="20" width="10" height="22"></rect>
      <rect x="195" y="358" width="10" height="22"></rect>
      <rect x="20" y="195" width="22" height="10"></rect>
      <rect x="358" y="195" width="22" height="10"></rect>
      <g transform="rotate(45 200 200)">
        <rect x="195" y="20" width="10" height="22"></rect>
        <rect x="195" y="358" width="10" height="22"></rect>
        <rect x="20" y="195" width="22" height="10"></rect>
        <rect x="358" y="195" width="22" height="10"></rect>
      </g>
    </g>
  </g>

  
  
  <circle cx="200" cy="200" r="128" fill="none" stroke="#19E27A" stroke-width="2" stroke-dasharray="4 6"></circle>

  


  
  <g stroke="#19E27A" stroke-width="2" fill="none">
    
    <circle cx="140" cy="160" r="8" fill="#0A0A0A"></circle>
    <circle cx="260" cy="160" r="8" fill="#0A0A0A"></circle>
    <circle cx="140" cy="240" r="8" fill="#0A0A0A"></circle>
    <circle cx="260" cy="240" r="8" fill="#0A0A0A"></circle>
    
    <line x1="148" y1="160" x2="178" y2="180"></line>
    <line x1="252" y1="160" x2="222" y2="180"></line>
    <line x1="148" y1="240" x2="178" y2="220"></line>
    <line x1="252" y1="240" x2="222" y2="220"></line>
  </g>

  
  <g transform="translate(200 200)">
    <g fill="#19E27A">
      <rect x="-4" y="-38" width="8" height="10" transform="rotate(0)"></rect>
      <rect x="-4" y="-38" width="8" height="10" transform="rotate(45)"></rect>
      <rect x="-4" y="-38" width="8" height="10" transform="rotate(90)"></rect>
      <rect x="-4" y="-38" width="8" height="10" transform="rotate(135)"></rect>
      <rect x="-4" y="-38" width="8" height="10" transform="rotate(180)"></rect>
      <rect x="-4" y="-38" width="8" height="10" transform="rotate(225)"></rect>
      <rect x="-4" y="-38" width="8" height="10" transform="rotate(270)"></rect>
      <rect x="-4" y="-38" width="8" height="10" transform="rotate(315)"></rect>
    </g>
    <circle r="30" fill="#19E27A"></circle>
    <circle r="22" fill="#0A0A0A"></circle>
  </g>

  
  <g transform="translate(200 200)" fill="#19E27A">
    
    <path d="M -6 -16 L -10 -22 M 6 -16 L 10 -22" stroke="#19E27A" stroke-width="2" fill="none"></path>
    
    <ellipse cx="0" cy="-10" rx="6" ry="4"></ellipse>
    
    <ellipse cx="0" cy="2" rx="9" ry="12"></ellipse>
    
    <g stroke="#19E27A" stroke-width="1.6" fill="none" stroke-linecap="round">
      <path d="M -9 -2 L -16 -6"></path>
      <path d="M -9 2 L -17 2"></path>
      <path d="M -9 8 L -16 12"></path>
      <path d="M 9 -2 L 16 -6"></path>
      <path d="M 9 2 L 17 2"></path>
      <path d="M 9 8 L 16 12"></path>
    </g>
    
    <line x1="0" y1="-6" x2="0" y2="12" stroke="#0A0A0A" stroke-width="1.2"></line>
  </g>
  </g>
</svg>